<svg t="1542962007530" class="icon" viewBox="0 0 1024 1024" version="1.1" xmlns="http://www.w3.org/2000/svg" p-id="1409" height="200" width="200"><path d="M812.19 476.14C762.14 299.64 674.07 199.77 609 147.08c-71.61-58-131.64-73.42-134.16-74.08l-24.18-6L446 91.77c-0.52 2.73-4 21.85-6.44 50.17-4.24-2.08-8.88-4.17-14-6.28l-20.5-8.49-9.22 19.13c-0.42 0.61-1 1.36-1.6 2.25-9.72 13.57-35.52 49.62-37.35 100.88-1.83 51.06 20.22 100.8 65.65 148.33a366.93 366.93 0 0 0-65.14 23.92C276.91 460.36 220.06 525.57 193 610.27c-20.75 64.94-9.9 129.31 31.4 186.14C297.83 897.49 455.11 957 566.62 957h3.6c91.39-1.07 168.1-37.56 216-102.78 30.14-41 48.11-92.4 53.4-152.65 5.73-65.2-3.5-141.04-27.43-225.43z m-408-225c1-27.39 11.8-49.1 20.59-63a71.8 71.8 0 0 1 12.46 8.32c0.1 60.37 9.47 135.16 46.82 191.5l-2.39 0.18c-53.06-45.56-79.13-91.61-77.51-136.97z m344.08 574.45c-52.47 71.41-134.42 82.95-178.6 83.46h-3.06C469 909.07 326.18 855.66 262.49 768c-32.34-44.51-40.58-92.61-24.49-143 23.1-72.3 69.59-125.9 138.16-159.32 50.14-24.44 94.77-28.85 98.84-29.21l0.1 0.58c0.52-0.09 52.88-8.69 85.52 12.88l25.85-40.15a123.82 123.82 0 0 0-31.32-14.61c-80.34-59.5-73.54-205.17-66.64-266.47 21.81 9.33 55.72 26.91 93.08 57.54 58.95 48.34 138.92 140.18 185.13 303.14C808.36 636.2 802 752.46 748.27 825.59z m-376-318.1c-47.77 0-86.63 39.37-86.63 87.77S324.52 683 372.29 683s86.62-39.37 86.62-87.76-38.86-87.75-86.62-87.75z m0 127.61c-21.68 0-39.32-17.87-39.32-39.84s17.64-39.84 39.32-39.84 39.32 17.87 39.32 39.84-17.59 39.84-39.3 39.84z" fill="#ffffff" p-id="1410"></path></svg>